<svg version="1.1" xmlns="http://www.w3.org/2000/svg" xmlns:xlink="http://www.w3.org/1999/xlink" width="470.87939453125" height="291"><defs/><g><g transform="translate(-110,-214) scale(1,1)"><rect fill="#C0C0C0" stroke="none" x="127" y="327" width="450.87939453125" height="175" opacity="0.2"/></g><g transform="translate(-110,-214) scale(1,1)"><rect fill="#ffffff" stroke="none" x="120" y="320" width="450.87939453125" height="175"/></g><g transform="translate(-110,-214) scale(1,1)"><path fill="none" stroke="#000000" d="M 120 320 L 570.87939453125 320 L 570.87939453125 495 L 120 495 L 120 320 Z Z" stroke-miterlimit="10"/></g><g transform="translate(-110,-214) scale(1,1)"><path fill="none" stroke="#000000" d="M 120 345 L 570.87939453125 345" stroke-miterlimit="10"/></g><g transform="translate(-110,-214) scale(1,1)"><path fill="none" stroke="#000000" d="M 120 413 L 570.87939453125 413" stroke-miterlimit="10"/></g><g transform="translate(-110,-214) scale(1,1)"><g><path fill="none" stroke="none"/><text fill="#000000" stroke="none" font-family="Arial" font-size="13px" font-style="normal" font-weight="bold" text-decoration="none" x="312.568359375" y="339.5">PGMImage</text></g></g><g transform="translate(-110,-214) scale(1,1)"><g><path fill="none" stroke="none"/><text fill="#000000" stroke="none" font-family="Arial" font-size="13px" font-style="normal" font-weight="normal" text-decoration="none" x="125" y="362.5">-name: String</text></g></g><g transform="translate(-110,-214) scale(1,1)"><g><path fill="none" stroke="none"/><text fill="#000000" stroke="none" font-family="Arial" font-size="13px" font-style="normal" font-weight="normal" text-decoration="none" x="125" y="377.5">-height: Integer</text></g></g><g transform="translate(-110,-214) scale(1,1)"><g><path fill="none" stroke="none"/><text fill="#000000" stroke="none" font-family="Arial" font-size="13px" font-style="normal" font-weight="normal" text-decoration="none" x="125" y="392.5">-width: Integer</text></g></g><g transform="translate(-110,-214) scale(1,1)"><g><path fill="none" stroke="none"/><text fill="#000000" stroke="none" font-family="Arial" font-size="13px" font-style="normal" font-weight="normal" text-decoration="none" x="125" y="407.5">-content: Integer[][]</text></g></g><g transform="translate(-110,-214) scale(1,1)"><g><path fill="none" stroke="none"/><text fill="#000000" stroke="none" font-family="Arial" font-size="13px" font-style="normal" font-weight="normal" text-decoration="none" x="125" y="430.5">+PGMImage(name: String, height: Integer, width: Integer, content: Integer[][])</text></g></g><g transform="translate(-110,-214) scale(1,1)"><g><path fill="none" stroke="none"/><text fill="#000000" stroke="none" font-family="Arial" font-size="13px" font-style="normal" font-weight="normal" text-decoration="none" x="125" y="445.5">+enlargement(ratio: Integer): PGMImage</text></g></g><g transform="translate(-110,-214) scale(1,1)"><g><path fill="none" stroke="none"/><text fill="#000000" stroke="none" font-family="Arial" font-size="13px" font-style="normal" font-weight="normal" text-decoration="none" x="125" y="460.5">+reduction(ratio: Integer): PGMImage</text></g></g><g transform="translate(-110,-214) scale(1,1)"><g><path fill="none" stroke="none"/><text fill="#000000" stroke="none" font-family="Arial" font-size="13px" font-style="normal" font-weight="normal" text-decoration="none" x="125" y="475.5">+thresholding(threshold: Integer): PGMImage</text></g></g><g transform="translate(-110,-214) scale(1,1)"><g><path fill="none" stroke="none"/><text fill="#000000" stroke="none" font-family="Arial" font-size="13px" font-style="normal" font-weight="normal" text-decoration="none" x="125" y="490.5">+difference(other: PGMImage): PGMImage</text></g></g><g transform="translate(-110,-214) scale(1,1)"><rect fill="#C0C0C0" stroke="none" x="247" y="231" width="223.92529296875" height="72" opacity="0.2"/></g><g transform="translate(-110,-214) scale(1,1)"><rect fill="#ffffff" stroke="none" x="240" y="224" width="223.92529296875" height="72"/></g><g transform="translate(-110,-214) scale(1,1)"><path fill="none" stroke="#000000" d="M 240 224 L 463.92529296875 224 L 463.92529296875 296 L 240 296 L 240 224 Z Z" stroke-miterlimit="10"/></g><g transform="translate(-110,-214) scale(1,1)"><path fill="none" stroke="#000000" d="M 240 249 L 463.92529296875 249" stroke-miterlimit="10"/></g><g transform="translate(-110,-214) scale(1,1)"><path fill="none" stroke="#000000" d="M 240 259 L 463.92529296875 259" stroke-miterlimit="10"/></g><g transform="translate(-110,-214) scale(1,1)"><g><path fill="none" stroke="none"/><text fill="#000000" stroke="none" font-family="Arial" font-size="13px" font-style="italic" font-weight="bold" text-decoration="none" x="319.8212890625" y="243.5">PGMFileIO</text></g></g><g transform="translate(-110,-214) scale(1,1)"><g><path fill="none" stroke="none"/><text fill="#000000" stroke="none" font-family="Arial" font-size="13px" font-style="italic" font-weight="normal" text-decoration="none" x="245" y="276.5">+read(dir: String): PGMImage</text></g></g><g transform="translate(-110,-214) scale(1,1)"><g><path fill="none" stroke="none"/><text fill="#000000" stroke="none" font-family="Arial" font-size="13px" font-style="italic" font-weight="normal" text-decoration="none" x="245" y="291.5">+write(dir: String, image: PGMImage)</text></g></g></g></svg>